<svg preserveAspectRatio="none" width="100%" height="100%" overflow="visible" style="display: block;" viewBox="0 0 22.6667 25" fill="none" xmlns="http://www.w3.org/2000/svg">
<path id="Icon" d="M21.8333 10.1667H0.833334M16 0.833333V5.5M6.66667 0.833333V5.5M9.58333 14.8333L11.3333 13.6667V19.5M9.875 19.5H12.7917M6.43333 24.1667H16.2333C18.1935 24.1667 19.1736 24.1667 19.9223 23.7852C20.5809 23.4496 21.1163 22.9142 21.4519 22.2556C21.8333 21.5069 21.8333 20.5269 21.8333 18.5667V8.76667C21.8333 6.80648 21.8333 5.82639 21.4519 5.0777C21.1163 4.41913 20.5809 3.8837 19.9223 3.54814C19.1736 3.16667 18.1935 3.16667 16.2333 3.16667H6.43333C4.47315 3.16667 3.49306 3.16667 2.74437 3.54814C2.0858 3.8837 1.55037 4.41913 1.21481 5.0777C0.833334 5.82639 0.833334 6.80648 0.833334 8.76667V18.5667C0.833334 20.5269 0.833334 21.5069 1.21481 22.2556C1.55037 22.9142 2.0858 23.4496 2.74437 23.7852C3.49306 24.1667 4.47315 24.1667 6.43333 24.1667Z" stroke="var(--stroke-0, #535862)" stroke-width="1.66667" stroke-linecap="round" stroke-linejoin="round"/>
</svg>
