<svg preserveAspectRatio="none" width="100%" height="100%" overflow="visible" style="display: block;" viewBox="0 0 24.9792 24.9792" fill="none" xmlns="http://www.w3.org/2000/svg">
<g id="Icon">
<path d="M18.5667 14.8125C18.8898 14.8125 19.0514 14.8125 19.1824 14.8843C19.2904 14.9435 19.391 15.0546 19.4391 15.1681C19.4974 15.3055 19.4827 15.4518 19.4534 15.7444C19.3012 17.2611 18.7792 18.7226 17.9271 19.9979C16.9015 21.5327 15.4438 22.729 13.7384 23.4354C12.0329 24.1418 10.1563 24.3267 8.34583 23.9665C6.53534 23.6064 4.8723 22.7175 3.56701 21.4122C2.26172 20.1069 1.3728 18.4439 1.01268 16.6334C0.652547 14.8229 0.837378 12.9463 1.5438 11.2408C2.25021 9.53539 3.44649 8.07772 4.98135 7.05216C6.25666 6.20003 7.71813 5.67802 9.23486 5.52584C9.52741 5.49648 9.67369 5.48181 9.81116 5.54013C9.92457 5.58824 10.0357 5.6888 10.0949 5.79684C10.1667 5.9278 10.1667 6.08938 10.1667 6.41255V13.8792C10.1667 14.2059 10.1667 14.3693 10.2303 14.494C10.2862 14.6038 10.3754 14.693 10.4852 14.749C10.61 14.8125 10.7733 14.8125 11.1 14.8125H18.5667Z" stroke="var(--stroke-0, #535862)" stroke-width="1.66667" stroke-linecap="round" stroke-linejoin="round"/>
<path d="M14.8333 1.74588C14.8333 1.42271 14.8333 1.26112 14.9051 1.13016C14.9643 1.02212 15.0754 0.921569 15.1888 0.873455C15.3263 0.815129 15.4726 0.829802 15.7651 0.859148C17.8983 1.07311 19.9037 2.0169 21.433 3.54621C22.9623 5.07553 23.9061 7.08093 24.1201 9.21406C24.1494 9.50663 24.1641 9.65291 24.1058 9.79038C24.0576 9.90378 23.9571 10.0149 23.8491 10.0741C23.7181 10.1459 23.5565 10.1459 23.2333 10.1459L15.7667 10.1459C15.44 10.1459 15.2766 10.1459 15.1518 10.0823C15.0421 10.0264 14.9528 9.93713 14.8969 9.82737C14.8333 9.70259 14.8333 9.53924 14.8333 9.21254V1.74588Z" stroke="var(--stroke-0, #535862)" stroke-width="1.66667" stroke-linecap="round" stroke-linejoin="round"/>
</g>
</svg>
