<svg preserveAspectRatio="none" width="100%" height="100%" overflow="visible" style="display: block;" viewBox="0 0 14.6046 13.9998" fill="none" xmlns="http://www.w3.org/2000/svg">
<g id="Group 1597882023">
<path id="Vector" d="M6.04845 5.60295C6.29413 5.13783 6.41697 4.53514 6.41697 3.79487V3.44129C6.41697 2.33266 6.14524 1.48439 5.59825 0.889093C5.04741 0.297651 4.25442 0 3.20868 0C2.16294 0 1.36996 0.297651 0.822647 0.889093C0.27566 1.48439 7.60555e-05 2.33266 7.60555e-05 3.44129V4.18542H2.03592V3.30372C2.03592 2.40338 2.40798 1.9569 3.15241 1.9569C3.51706 1.9569 3.79265 2.06844 3.98237 2.29923C4.1721 2.52617 4.26535 2.93182 4.26535 3.51972V4.28249C4.26535 4.80354 4.15731 5.17544 3.94539 5.39852C3.72962 5.61806 3.4058 5.7296 2.97394 5.7296H2.13271V7.6865H2.85849C3.35339 7.6865 3.71097 7.82054 3.93414 8.08476C4.15377 8.35251 4.26535 8.79899 4.26535 9.42418V10.4994C4.26535 11.076 4.17242 11.4743 3.98237 11.7048C3.79265 11.9317 3.51706 12.0471 3.15241 12.0471C2.40798 12.0471 2.03592 11.5968 2.03592 10.6964V9.42386H7.60555e-05V10.5585C7.60555e-05 11.6672 0.27566 12.5193 0.822647 13.1107C1.36996 13.706 2.16648 13.9998 3.20868 13.9998C4.25088 13.9998 5.04741 13.706 5.59825 13.1107C6.14524 12.5193 6.41697 11.6672 6.41697 10.5585V9.48333C6.41697 8.00986 5.91468 7.05391 4.91331 6.60744C5.41946 6.39915 5.79923 6.06421 6.04845 5.60295Z" fill="var(--fill-0, #1AABB0)"/>
<path id="Vector_2" d="M14.2325 5.60295C14.4781 5.13783 14.6045 4.53514 14.6045 3.79487V3.44129C14.6045 2.33266 14.3289 1.48439 13.7819 0.889093C13.235 0.297651 12.4381 0 11.3959 0C10.3537 0 9.55718 0.297651 9.00634 0.889093C8.45935 1.48439 8.18763 2.33266 8.18763 3.44129V4.18542H10.2199V3.30372C10.2199 2.40338 10.592 1.9569 11.3364 1.9569C11.7011 1.9569 11.9767 2.06844 12.1664 2.29923C12.3561 2.52617 12.4529 2.93182 12.4529 3.51972V4.28249C12.4529 4.80354 12.3449 5.17544 12.1291 5.39852C11.9133 5.61806 11.5895 5.7296 11.1615 5.7296H10.3203V7.6865H11.0422C11.5374 7.6865 11.8982 7.82054 12.1178 8.08476C12.341 8.35251 12.4529 8.79899 12.4529 9.42418V10.4994C12.4529 11.076 12.3561 11.4743 12.1664 11.7048C11.9767 11.9317 11.7011 12.0471 11.3364 12.0471C10.592 12.0471 10.2199 11.5968 10.2199 10.6964V9.42386H8.18763V10.5585C8.18763 11.6672 8.45935 12.5193 9.00634 13.1107C9.55718 13.706 10.3502 13.9998 11.3959 13.9998C12.4416 13.9998 13.2346 13.706 13.7819 13.1107C14.3289 12.5193 14.6045 11.6672 14.6045 10.5585V9.48333C14.6045 8.00986 14.1019 7.05391 13.097 6.60744C13.607 6.39915 13.9829 6.06421 14.2321 5.60295H14.2325Z" fill="var(--fill-0, #1AABB0)"/>
</g>
</svg>
