<svg preserveAspectRatio="none" width="100%" height="100%" overflow="visible" style="display: block;" viewBox="0 0 35.3555 35.3555" fill="none" xmlns="http://www.w3.org/2000/svg">
<g id="Union">
<mask id="path-1-inside-1_0_8" fill="white">
<path d="M35.3555 7.07129L24.749 17.6777L35.3555 28.2842L28.2842 35.3555L17.6777 24.749L7.07129 35.3555L0 28.2842L10.6064 17.6777L0 7.07129L7.07129 0L17.6777 10.6064L28.2842 0L35.3555 7.07129Z"/>
</mask>
<path d="M35.3555 7.07129L36.7697 8.4855L38.1839 7.07129L36.7697 5.65708L35.3555 7.07129ZM24.749 17.6777L23.3348 16.2635L21.9206 17.6777L23.3348 19.0919L24.749 17.6777ZM35.3555 28.2842L36.7697 29.6984L38.1839 28.2842L36.7697 26.87L35.3555 28.2842ZM28.2842 35.3555L26.87 36.7697L28.2842 38.1839L29.6984 36.7697L28.2842 35.3555ZM17.6777 24.749L19.0919 23.3348L17.6777 21.9206L16.2635 23.3348L17.6777 24.749ZM7.07129 35.3555L5.65708 36.7697L7.07129 38.1839L8.4855 36.7697L7.07129 35.3555ZM0 28.2842L-1.41421 26.87L-2.82843 28.2842L-1.41421 29.6984L0 28.2842ZM10.6064 17.6777L12.0207 19.0919L13.4349 17.6777L12.0207 16.2635L10.6064 17.6777ZM0 7.07129L-1.41421 5.65708L-2.82843 7.07129L-1.41421 8.4855L0 7.07129ZM7.07129 0L8.4855 -1.41421L7.07129 -2.82843L5.65708 -1.41421L7.07129 0ZM17.6777 10.6064L16.2635 12.0207L17.6777 13.4349L19.0919 12.0207L17.6777 10.6064ZM28.2842 0L29.6984 -1.41421L28.2842 -2.82843L26.87 -1.41421L28.2842 0ZM35.3555 7.07129L33.9413 5.65708L23.3348 16.2635L24.749 17.6777L26.1632 19.0919L36.7697 8.4855L35.3555 7.07129ZM24.749 17.6777L23.3348 19.0919L33.9413 29.6984L35.3555 28.2842L36.7697 26.87L26.1632 16.2635L24.749 17.6777ZM35.3555 28.2842L33.9413 26.87L26.87 33.9413L28.2842 35.3555L29.6984 36.7697L36.7697 29.6984L35.3555 28.2842ZM28.2842 35.3555L29.6984 33.9413L19.0919 23.3348L17.6777 24.749L16.2635 26.1632L26.87 36.7697L28.2842 35.3555ZM17.6777 24.749L16.2635 23.3348L5.65708 33.9413L7.07129 35.3555L8.4855 36.7697L19.0919 26.1632L17.6777 24.749ZM7.07129 35.3555L8.4855 33.9413L1.41421 26.87L0 28.2842L-1.41421 29.6984L5.65708 36.7697L7.07129 35.3555ZM0 28.2842L1.41421 29.6984L12.0207 19.0919L10.6064 17.6777L9.19223 16.2635L-1.41421 26.87L0 28.2842ZM10.6064 17.6777L12.0207 16.2635L1.41421 5.65708L0 7.07129L-1.41421 8.4855L9.19223 19.0919L10.6064 17.6777ZM0 7.07129L1.41421 8.4855L8.4855 1.41421L7.07129 0L5.65708 -1.41421L-1.41421 5.65708L0 7.07129ZM7.07129 0L5.65708 1.41421L16.2635 12.0207L17.6777 10.6064L19.0919 9.19223L8.4855 -1.41421L7.07129 0ZM17.6777 10.6064L19.0919 12.0207L29.6984 1.41421L28.2842 0L26.87 -1.41421L16.2635 9.19223L17.6777 10.6064ZM28.2842 0L26.87 1.41421L33.9413 8.4855L35.3555 7.07129L36.7697 5.65708L29.6984 -1.41421L28.2842 0Z" fill="var(--stroke-0, #141414)" mask="url(#path-1-inside-1_0_8)"/>
</g>
</svg>
