<svg preserveAspectRatio="none" width="100%" height="100%" overflow="visible" style="display: block;" viewBox="0 0 40 30" fill="none" xmlns="http://www.w3.org/2000/svg">
<g id="Union">
<mask id="path-1-inside-1_0_4" fill="white">
<path d="M30 0C30 1.31322 30.2582 2.61389 30.7607 3.82715C31.2633 5.04036 32.0002 6.14273 32.9287 7.07129C33.8573 7.99985 34.9596 8.73671 36.1729 9.23926C37.3861 9.7418 38.6868 10 40 10V20C38.6868 20 37.3861 20.2582 36.1729 20.7607C34.9596 21.2633 33.8573 22.0002 32.9287 22.9287C32.0002 23.8573 31.2633 24.9596 30.7607 26.1729C30.2582 27.3861 30 28.6868 30 30H20C20 27.3737 20.5174 24.7731 21.5225 22.3467C21.8574 21.5381 22.2459 20.7547 22.6816 20H0V10H22.6816C22.2459 9.24531 21.8574 8.46192 21.5225 7.65332C20.5174 5.22689 20 2.62634 20 0H30Z"/>
</mask>
<path d="M30 0L32 1.74846e-07V-2H30V0ZM30.7607 3.82715L28.913 4.59252L28.913 4.59254L30.7607 3.82715ZM32.9287 7.07129L31.5145 8.4855L32.9287 7.07129ZM36.1729 9.23926L35.4075 11.087L35.4075 11.087L36.1729 9.23926ZM40 10H42V8H40V10ZM40 20V22H42V20H40ZM36.1729 20.7607L35.4075 18.913L35.4075 18.913L36.1729 20.7607ZM32.9287 22.9287L31.5145 21.5145L32.9287 22.9287ZM30.7607 26.1729L28.913 25.4075L28.913 25.4075L30.7607 26.1729ZM30 30V32H32V30H30ZM20 30H18V32H20V30ZM21.5225 22.3467L19.6747 21.5813L19.6747 21.5813L21.5225 22.3467ZM22.6816 20L24.4136 21.0001L26.146 18H22.6816V20ZM0 20H-2V22H0V20ZM0 10V8H-2V10H0ZM22.6816 10V12H26.146L24.4136 8.99991L22.6816 10ZM21.5225 7.65332L19.6747 8.41866L19.6747 8.41869L21.5225 7.65332ZM20 0V-2H18V-1.74846e-07L20 0ZM30 0L28 -1.74846e-07C28 1.57533 28.3097 3.13611 28.913 4.59252L30.7607 3.82715L32.6085 3.06178C32.2067 2.09167 32 1.05111 32 1.74846e-07L30 0ZM30.7607 3.82715L28.913 4.59254C29.5161 6.04862 30.4004 7.3714 31.5145 8.4855L32.9287 7.07129L34.3429 5.65708C33.5999 4.91406 33.0104 4.03211 32.6085 3.06176L30.7607 3.82715ZM32.9287 7.07129L31.5145 8.4855C32.6286 9.5996 33.9514 10.4839 35.4075 11.087L36.1729 9.23926L36.9382 7.39151C35.9679 6.98956 35.0859 6.40009 34.3429 5.65708L32.9287 7.07129ZM36.1729 9.23926L35.4075 11.087C36.8639 11.6903 38.4247 12 40 12V10V8C38.9489 8 37.9083 7.79333 36.9382 7.3915L36.1729 9.23926ZM40 10H38V20H40H42V10H40ZM40 20V18C38.4247 18 36.8639 18.3097 35.4075 18.913L36.1729 20.7607L36.9382 22.6085C37.9083 22.2067 38.9489 22 40 22V20ZM36.1729 20.7607L35.4075 18.913C33.9514 19.5161 32.6286 20.4004 31.5145 21.5145L32.9287 22.9287L34.3429 24.3429C35.0859 23.5999 35.9679 23.0104 36.9382 22.6085L36.1729 20.7607ZM32.9287 22.9287L31.5145 21.5145C30.4004 22.6286 29.5161 23.9514 28.913 25.4075L30.7607 26.1729L32.6085 26.9382C33.0104 25.9679 33.5999 25.0859 34.3429 24.3429L32.9287 22.9287ZM30.7607 26.1729L28.913 25.4075C28.3097 26.8639 28 28.4247 28 30H30H32C32 28.9489 32.2067 27.9083 32.6085 26.9382L30.7607 26.1729ZM30 30V28H20V30V32H30V30ZM20 30H22C22 27.6364 22.4657 25.2959 23.3702 23.112L21.5225 22.3467L19.6747 21.5813C18.5692 24.2503 18 27.1109 18 30H20ZM21.5225 22.3467L23.3702 23.112C23.6707 22.3866 24.0202 21.6815 24.4136 21.0001L22.6816 20L20.9496 18.9999C20.4716 19.8279 20.0441 20.6895 19.6747 21.5813L21.5225 22.3467ZM22.6816 20V18H0V20V22H22.6816V20ZM0 20H2V10H0H-2V20H0ZM0 10V12H22.6816V10V8H0V10ZM22.6816 10L24.4136 8.99991C24.0202 8.31847 23.6707 7.61337 23.3702 6.88795L21.5225 7.65332L19.6747 8.41869C20.0441 9.31046 20.4716 10.1721 20.9496 11.0001L22.6816 10ZM21.5225 7.65332L23.3702 6.88798C22.4657 4.70411 22 2.36361 22 1.74846e-07L20 0L18 -1.74846e-07C18 2.88906 18.5692 5.74967 19.6747 8.41866L21.5225 7.65332ZM20 0V2H30V0V-2H20V0Z" fill="var(--stroke-0, #D9D9D9)" mask="url(#path-1-inside-1_0_4)"/>
</g>
</svg>
