<svg preserveAspectRatio="none" width="100%" height="100%" overflow="visible" style="display: block;" viewBox="0 0 28 28" fill="none" xmlns="http://www.w3.org/2000/svg">
<g id="data">
<path id="Icon" d="M23.6 25C24.09 25 24.3351 25 24.5222 24.9046C24.6869 24.8207 24.8207 24.6869 24.9046 24.5222C25 24.3351 25 24.09 25 23.6V5.4C25 4.90995 25 4.66493 24.9046 4.47776C24.8207 4.31312 24.6869 4.17926 24.5222 4.09537C24.3351 4 24.09 4 23.6 4L19.4 4C18.91 4 18.6649 4 18.4778 4.09537C18.3131 4.17926 18.1793 4.31312 18.0954 4.47776C18 4.66493 18 4.90995 18 5.4V9.6C18 10.09 18 10.3351 17.9046 10.5222C17.8207 10.6869 17.6869 10.8207 17.5222 10.9046C17.3351 11 17.09 11 16.6 11H12.4C11.91 11 11.6649 11 11.4778 11.0954C11.3131 11.1793 11.1793 11.3131 11.0954 11.4778C11 11.6649 11 11.91 11 12.4V16.6C11 17.09 11 17.3351 10.9046 17.5222C10.8207 17.6869 10.6869 17.8207 10.5222 17.9046C10.3351 18 10.09 18 9.6 18H5.4C4.90995 18 4.66493 18 4.47776 18.0954C4.31312 18.1793 4.17926 18.3131 4.09537 18.4778C4 18.6649 4 18.91 4 19.4V23.6C4 24.09 4 24.3351 4.09537 24.5222C4.17926 24.6869 4.31312 24.8207 4.47776 24.9046C4.66493 25 4.90995 25 5.4 25L23.6 25Z" stroke="var(--stroke-0, #535862)" stroke-width="1.66667" stroke-linecap="round" stroke-linejoin="round"/>
</g>
</svg>
