<svg width="42" height="42" viewBox="0 0 42 42" fill="none" xmlns="http://www.w3.org/2000/svg">
<path d="M18.3851 17.7889C18.9897 16.6442 19.292 15.161 19.292 13.3392V12.4691C19.292 9.7407 18.6233 7.6531 17.2772 6.18807C15.9215 4.73252 13.97 4 11.3964 4C8.82283 4 6.87129 4.73252 5.52435 6.18807C4.17822 7.6531 3.5 9.7407 3.5 12.4691V14.3003H8.51024V12.1305C8.51024 9.91473 9.42586 8.81595 11.2579 8.81595C12.1553 8.81595 12.8336 9.09045 13.3005 9.65843C13.7674 10.2169 13.9969 11.2152 13.9969 12.6621V14.5392C13.9969 15.8216 13.731 16.7368 13.2095 17.2858C12.6784 17.8261 11.8815 18.1006 10.8187 18.1006H8.74844V22.9165H10.5346C11.7525 22.9165 12.6325 23.2464 13.1818 23.8967C13.7223 24.5556 13.9969 25.6544 13.9969 27.193V29.8391C13.9969 31.2582 13.7682 32.2383 13.3005 32.8055C12.8336 33.364 12.1553 33.648 11.2579 33.648C9.42586 33.648 8.51024 32.5397 8.51024 30.324V27.1922H3.5V29.9846C3.5 32.713 4.17822 34.8101 5.52435 36.2656C6.87129 37.7307 8.83154 38.4537 11.3964 38.4537C13.9613 38.4537 15.9215 37.7307 17.2772 36.2656C18.6233 34.8101 19.292 32.713 19.292 29.9846V27.3385C19.292 23.7123 18.0559 21.3597 15.5915 20.261C16.8372 19.7484 17.7718 18.9241 18.3851 17.7889Z" fill="#1AABB0"/>
<path d="M37.4472 17.7889C38.0518 16.6442 38.3628 15.161 38.3628 13.3392V12.4691C38.3628 9.7407 37.6846 7.6531 36.3385 6.18807C34.9923 4.73252 33.0313 4 30.4664 4C27.9015 4 25.9413 4.73252 24.5857 6.18807C23.2395 7.6531 22.5708 9.7407 22.5708 12.4691V14.3003H27.5723V12.1305C27.5723 9.91473 28.488 8.81595 30.32 8.81595C31.2174 8.81595 31.8956 9.09045 32.3626 9.65843C32.8295 10.2169 33.0677 11.2152 33.0677 12.6621V14.5392C33.0677 15.8216 32.8018 16.7368 32.2708 17.2858C31.7397 17.8261 30.9428 18.1006 29.8895 18.1006H27.8192V22.9165H29.5959C30.8146 22.9165 31.7025 23.2464 32.2431 23.8967C32.7923 24.5556 33.0677 25.6544 33.0677 27.193V29.8391C33.0677 31.2582 32.8295 32.2383 32.3626 32.8055C31.8956 33.364 31.2174 33.648 30.32 33.648C28.488 33.648 27.5723 32.5397 27.5723 30.324V27.1922H22.5708V29.9846C22.5708 32.713 23.2395 34.8101 24.5857 36.2656C25.9413 37.7307 27.8928 38.4537 30.4664 38.4537C33.04 38.4537 34.9915 37.7307 36.3385 36.2656C37.6846 34.8101 38.3628 32.713 38.3628 29.9846V27.3385C38.3628 23.7123 37.1259 21.3597 34.6528 20.261C35.9079 19.7484 36.8331 18.9241 37.4464 17.7889H37.4472Z" fill="#1AABB0"/>
</svg>
