<svg overflow="visible" style="display: block;" viewBox="0 0 93 16.299" fill="none" xmlns="http://www.w3.org/2000/svg">
<g id="Frame" clip-path="url(#clip0_0_42)">
<path id="Vector" d="M85.3159 12.9255C83.3209 12.9255 81.5482 11.4074 81.0916 9.31138H92.9363C92.9363 9.31138 92.9999 8.55192 92.9999 8.28326C92.9999 3.83455 89.5537 0.214343 85.318 0.214343C81.0823 0.214343 77.6362 3.8338 77.6362 8.28326C77.6362 12.7328 81.063 16.2681 85.318 16.2681C89.573 16.2681 92.0574 12.9758 92.6776 10.5924H89.0671C89.0671 10.5924 87.9188 12.9255 85.3159 12.9255ZM85.318 3.55538C87.2308 3.55538 88.8914 4.88219 89.4601 6.85964H81.1758C81.7426 4.88219 83.4038 3.55538 85.318 3.55538Z" fill="var(--fill-0, black)"/>
<path id="Vector_2" d="M40.1173 16.2681C35.8816 16.2681 32.5591 12.6862 32.5591 8.28326C32.5591 3.88033 36.0052 0.214343 40.2409 0.214343C44.4767 0.214343 47.9228 3.97639 47.9228 8.24048C47.9228 10.0573 47.9228 15.8681 47.9228 15.8681H44.9404V13.3226L44.7232 13.2625C44.198 14.6149 42.2952 16.2681 40.1166 16.2681H40.1173ZM40.2409 3.55538C37.8487 3.55538 35.9016 5.66492 35.9016 8.25849C35.9016 10.8521 37.848 12.9264 40.2409 12.9264C42.6339 12.9264 44.5803 10.8326 44.5803 8.25849C44.5803 5.68443 42.6339 3.55538 40.2409 3.55538Z" fill="var(--fill-0, black)"/>
<path id="Vector_3" d="M56.4332 16.2681C52.1974 16.2681 48.8749 12.6862 48.8749 8.28326C48.8749 3.88033 52.3211 0.214343 56.5568 0.214343C60.7925 0.214343 64.2387 3.97639 64.2387 8.24048C64.2387 10.0573 64.2387 15.8681 64.2387 15.8681H61.2563V13.3226L61.039 13.2625C60.5139 14.6149 58.6111 16.2681 56.4325 16.2681H56.4332ZM56.5568 3.55538C54.1646 3.55538 52.2175 5.66492 52.2175 8.25849C52.2175 10.8521 54.1638 12.9264 56.5568 12.9264C58.9498 12.9264 60.8961 10.8326 60.8961 8.25849C60.8961 5.68443 58.9498 3.55538 56.5568 3.55538Z" fill="var(--fill-0, black)"/>
<path id="Vector_4" d="M69.2455 15.8664L63.1241 0.615602H66.4731L70.9597 11.8499L75.4469 0.615602H78.7951L72.6745 15.8664H69.2455Z" fill="var(--fill-0, black)"/>
<path id="Vector_5" d="M10.89 16.2442C12.5557 16.2442 13.906 14.826 13.906 13.0765C13.906 11.327 12.5557 9.90883 10.89 9.90883C9.2243 9.90883 7.87398 11.327 7.87398 13.0765C7.87398 14.826 9.2243 16.2442 10.89 16.2442Z" fill="var(--fill-0, black)"/>
<path id="Vector_6" d="M18.7728 16.2442C20.4386 16.2442 21.7889 14.826 21.7889 13.0765C21.7889 11.327 20.4386 9.90883 18.7728 9.90883C17.1072 9.90883 15.7569 11.327 15.7569 13.0765C15.7569 14.826 17.1072 16.2442 18.7728 16.2442Z" fill="var(--fill-0, black)"/>
<path id="Vector_7" d="M14.8264 0C6.63724 0 -0.00214306 7.10608 5.1891e-07 15.8692H3.7877C3.7877 9.30192 8.69079 3.97742 14.8264 3.97742C20.9621 3.97742 25.8652 9.30192 25.8652 15.8692H29.6528C29.6543 7.10608 23.0149 0 14.8264 0Z" fill="var(--fill-0, black)"/>
</g>
<defs>
<clipPath id="clip0_0_42">
<rect width="93" height="16.299" fill="white"/>
</clipPath>
</defs>
</svg>
