<svg preserveAspectRatio="none" width="100%" height="100%" overflow="visible" style="display: block;" viewBox="0 0 150 34.4537" fill="none" xmlns="http://www.w3.org/2000/svg">
<g id="Group">
<path id="Vector" d="M50.931 21.8711C50.3683 20.7739 49.6632 19.8547 48.8156 19.1048C47.9767 18.3557 46.8783 17.4895 45.5306 16.526C44.2541 15.5894 43.2459 14.7769 42.5043 14.1077C41.7723 13.4385 41.1566 12.6355 40.6565 11.7163C40.1563 10.7971 39.9062 9.73553 39.9062 8.54895C39.9062 6.71053 40.29 5.23838 41.0759 4.14118C41.8617 3.05269 43.0931 2.49974 44.7803 2.49974C46.4676 2.49974 47.7085 3.05269 48.4848 4.14118C49.2706 5.23838 49.6632 6.72003 49.6632 8.60274V9.44126H51.7247V8.73643C51.7247 6.23827 51.1533 4.24876 50.0106 2.75841C48.8678 1.27756 47.1094 0.536339 44.7352 0.536339C42.3872 0.563235 40.6383 1.29496 39.4773 2.74022C38.3258 4.17678 37.7458 6.15758 37.7458 8.69134C37.7458 10.1635 38.0314 11.4482 38.6115 12.5636C39.1916 13.6702 39.9054 14.6069 40.7451 15.3742C41.5934 16.1415 42.6824 17.0069 44.0301 17.9799C45.2797 18.8809 46.2705 19.6752 47.0113 20.3444C47.7433 21.0223 48.359 21.8078 48.8591 22.7176C49.3593 23.6186 49.6181 24.6715 49.6181 25.8581C49.6181 27.7321 49.216 29.2129 48.4215 30.2832C47.6182 31.363 46.3599 31.9073 44.6371 31.9073C42.9143 31.9073 41.6647 31.363 40.8614 30.2832C40.0669 29.2129 39.6656 27.7313 39.6656 25.8581V24.0291H37.6041V25.7157C37.6041 28.2138 38.1842 30.2128 39.3443 31.6937C40.4958 33.184 42.2812 33.9245 44.6909 33.9245C47.1007 33.9245 48.8773 33.184 50.0375 31.6937C51.189 30.2128 51.769 28.2138 51.769 25.7157C51.769 24.2435 51.492 22.9675 50.9302 21.8703L50.931 21.8711Z" fill="var(--fill-0, black)"/>
<path id="Vector_2" d="M54.216 0.814V2.7861H60.9198V33.6405H63.0802V2.7861H69.7389V0.814H54.216Z" fill="var(--fill-0, black)"/>
<path id="Vector_3" d="M74.7104 20.1403L90.8957 20.1711V18.199L72.5594 18.1682V33.6397H85.5025V31.6676H74.7104V20.1395V20.1403ZM72.5594 0.814V19.1808H74.7104V2.78531H85.5025V0.813209H72.5594V0.814Z" fill="var(--fill-0, black)"/>
<path id="Vector_4" d="M101.177 2.92849C100.052 1.51883 98.2666 0.814 95.83 0.814H89.0194V10.4768H91.1798V2.78531H95.8308C97.5805 2.78531 98.8301 3.28526 99.5796 4.28437C100.329 5.28347 100.704 6.73822 100.704 8.64704V12.4924C100.704 14.4914 100.276 15.9366 99.4189 16.8289C98.5531 17.7212 97.1698 18.1674 95.2594 18.1674H89.0202V33.6389H91.1806V20.13H95.2602C97.8575 20.13 99.7766 19.4964 101.009 18.2117C102.25 16.927 102.865 14.9731 102.865 12.35V8.79022C102.865 6.28336 102.303 4.32866 101.178 2.92849H101.177Z" fill="var(--fill-0, black)"/>
<path id="Vector_5" d="M119.234 21.8711C118.672 20.7739 117.967 19.8547 117.128 19.1048C116.28 18.3557 115.182 17.4895 113.843 16.526C112.557 15.5894 111.548 14.7769 110.816 14.1077C110.076 13.4385 109.46 12.6355 108.96 11.7163C108.46 10.7971 108.21 9.73553 108.21 8.54895C108.21 6.71053 108.602 5.23838 109.379 4.14118C110.165 3.05269 111.396 2.49974 113.092 2.49974C114.788 2.49974 116.011 3.05269 116.797 4.14118C117.573 5.23838 117.967 6.72003 117.967 8.60274V9.44126H120.038V8.73643C120.038 6.23827 119.466 4.24876 118.323 2.75841C117.181 1.27756 115.422 0.536339 113.039 0.536339C110.701 0.563235 108.942 1.29496 107.791 2.74022C106.631 4.17678 106.051 6.15758 106.051 8.69134C106.051 10.1635 106.345 11.4482 106.916 12.5636C107.497 13.6702 108.21 14.6069 109.059 15.3742C109.898 16.1415 110.996 17.0069 112.344 17.9799C113.593 18.8809 114.584 19.6752 115.316 20.3444C116.057 21.0223 116.673 21.8078 117.173 22.7176C117.673 23.6186 117.923 24.6715 117.923 25.8581C117.923 27.7321 117.521 29.2129 116.726 30.2832C115.932 31.363 114.674 31.9073 112.951 31.9073C111.228 31.9073 109.97 31.363 109.175 30.2832C108.372 29.2129 107.978 27.7313 107.978 25.8581V24.0291H105.907V25.7157C105.907 28.2138 106.488 30.2128 107.648 31.6937C108.809 33.184 110.585 33.9245 112.995 33.9245C115.405 33.9245 117.19 33.184 118.342 31.6937C119.502 30.2128 120.082 28.2138 120.082 25.7157C120.082 24.2435 119.796 22.9675 119.234 21.8703V21.8711Z" fill="var(--fill-0, black)"/>
<path id="Vector_6" d="M123.757 30.6574V33.6397H126.741V30.6574H123.757Z" fill="var(--fill-0, black)"/>
<path id="Vector_7" d="M14.8851 13.7889C15.4897 12.6442 15.792 11.161 15.792 9.33922V8.46905C15.792 5.7407 15.1233 3.6531 13.7772 2.18807C12.4215 0.732523 10.47 2.00666e-06 7.8964 2.00666e-06C5.32283 2.00666e-06 3.37129 0.732523 2.02435 2.18807C0.678215 3.6531 0 5.7407 0 8.46905V10.3004H5.01024V8.13048C5.01024 5.91473 5.92586 4.81595 7.75791 4.81595C8.65534 4.81595 9.33355 5.09045 9.80047 5.65843C10.2674 6.21692 10.4969 7.21523 10.4969 8.66207V10.5393C10.4969 11.8216 10.231 12.7368 9.70946 13.2858C9.17844 13.8261 8.38152 14.1006 7.3187 14.1006H5.24844V18.9165H7.03459C8.25253 18.9165 9.13254 19.2464 9.68176 19.8967C10.2223 20.5556 10.4969 21.6544 10.4969 23.193V25.8391C10.4969 27.2582 10.2682 28.2383 9.80047 28.8055C9.33355 29.364 8.65534 29.648 7.75791 29.648C5.92586 29.648 5.01024 28.5397 5.01024 26.324V23.1922H0V25.9846C0 28.713 0.678215 30.8101 2.02435 32.2656C3.37129 33.7307 5.33154 34.4537 7.8964 34.4537C10.4613 34.4537 12.4215 33.7307 13.7772 32.2656C15.1233 30.8101 15.792 28.713 15.792 25.9846V23.3385C15.792 19.7123 14.5559 17.3597 12.0915 16.261C13.3372 15.7484 14.2718 14.9241 14.8851 13.7889Z" fill="var(--fill-0, #1AABB0)"/>
<path id="Vector_8" d="M33.9471 13.7889C34.5517 12.6442 34.8628 11.161 34.8628 9.33921V8.46905C34.8628 5.7407 34.1845 3.6531 32.8384 2.18807C31.4923 0.732521 29.5312 0 26.9664 0C24.4015 0 22.4412 0.732521 21.0856 2.18807C19.7395 3.6531 19.0707 5.7407 19.0707 8.46905V10.3003H24.0723V8.13048C24.0723 5.91473 24.9879 4.81595 26.8199 4.81595C27.7174 4.81595 28.3956 5.09045 28.8625 5.65843C29.3294 6.21692 29.5676 7.21523 29.5676 8.66207V10.5392C29.5676 11.8216 29.3017 12.7368 28.7707 13.2858C28.2397 13.8261 27.4428 14.1006 26.3894 14.1006H24.3192V18.9165H26.0958C27.3146 18.9165 28.2025 19.2464 28.743 19.8967C29.2922 20.5556 29.5676 21.6544 29.5676 23.193V25.8391C29.5676 27.2582 29.3294 28.2383 28.8625 28.8055C28.3956 29.364 27.7174 29.648 26.8199 29.648C24.9879 29.648 24.0723 28.5397 24.0723 26.324V23.1922H19.0707V25.9846C19.0707 28.713 19.7395 30.8101 21.0856 32.2656C22.4412 33.7307 24.3928 34.4537 26.9664 34.4537C29.5399 34.4537 31.4915 33.7307 32.8384 32.2656C34.1845 30.8101 34.8628 28.713 34.8628 25.9846V23.3385C34.8628 19.7123 33.6258 17.3597 31.1528 16.261C32.4079 15.7484 33.333 14.9241 33.9463 13.7889H33.9471Z" fill="var(--fill-0, #1AABB0)"/>
<g id="Group_2">
<path id="Vector_9" d="M131.581 26.2868C132.479 25.6025 133.667 25.26 135.148 25.26H136.758V26.4806H135.064C133.954 26.4806 133.065 26.7163 132.4 27.1886C131.733 27.6601 131.4 28.4053 131.4 29.4226C131.4 30.4399 131.733 31.1842 132.4 31.6565C133.066 32.128 133.954 32.3645 135.064 32.3645H145.169C146.279 32.3645 147.163 32.1288 147.82 31.6565C148.477 31.185 148.805 30.4406 148.805 29.4226C148.805 28.4045 148.477 27.6609 147.82 27.1886C147.163 26.7171 146.279 26.4806 145.169 26.4806H142.865V25.26H145.086C146.566 25.26 147.755 25.6025 148.652 26.2868C149.551 26.9711 149.998 28.0255 149.998 29.4502C149.998 30.8749 149.55 31.9294 148.652 32.6137C147.755 33.2979 146.566 33.6405 145.086 33.6405H135.147C133.667 33.6405 132.478 33.2987 131.58 32.6137C130.682 31.9294 130.234 30.8749 130.234 29.4502C130.234 28.0255 130.682 26.9719 131.58 26.2868H131.581Z" fill="var(--fill-0, black)"/>
<path id="Vector_10" d="M131.581 22.1939C130.683 21.4819 130.234 20.4227 130.234 19.017C130.234 17.6113 130.678 16.4967 131.567 15.7839C132.455 15.072 133.649 14.716 135.148 14.716H145.086C146.585 14.716 147.779 15.072 148.667 15.7839C149.556 16.4959 150 17.5741 150 19.017C150 20.4599 149.551 21.4827 148.654 22.1939C147.756 22.9066 146.568 23.2626 145.087 23.2626H135.149C133.669 23.2626 132.48 22.9066 131.581 22.1939H131.581ZM147.847 21.2644C148.504 20.7834 148.833 20.0343 148.833 19.0162C148.833 17.9981 148.504 17.2173 147.847 16.7269C147.191 16.2372 146.298 15.9912 145.169 15.9912H135.064C133.936 15.9912 133.042 16.2364 132.385 16.7269C131.729 17.2173 131.4 17.9799 131.4 19.0162C131.4 20.0525 131.729 20.7834 132.385 21.2644C133.042 21.7453 133.936 21.9858 135.064 21.9858H145.169C146.298 21.9858 147.191 21.7453 147.847 21.2644Z" fill="var(--fill-0, black)"/>
<path id="Vector_11" d="M149.805 7.36236L132.621 11.4687H149.832V12.6063H130.401V10.775L147.584 6.6955L130.401 2.6445V0.813206H149.832V2.03381H132.566L149.805 6.08481V7.36157V7.36236Z" fill="var(--fill-0, black)"/>
</g>
</g>
</svg>
