<svg overflow="visible" style="display: block;" viewBox="0 0 94.1998 25.1807" fill="none" xmlns="http://www.w3.org/2000/svg">
<g id="Logo">
<g id="Symbol">
<path id="Union" d="M23.0293 10.4082L23.0605 10.3779L25.2412 12.5596L25.2109 12.5889L25.2422 12.6211L23.0605 14.8027L23.0293 14.7715L12.6211 25.1807L2.21289 14.7725L2.18262 14.8027L0.000976562 12.6211L0.03125 12.5908L0 12.5596L2.18262 10.3779L2.21289 10.4082L12.6221 0L23.0293 10.4082ZM14.165 9.98633H11.0781V5.9082L4.39453 12.5898L11.0771 19.2725V15.1943H14.1641V19.2725L20.8477 12.5898L14.165 5.9082V9.98633Z" fill="var(--fill-0, black)"/>
</g>
<g id="VDCC">
<path d="M35.1739 20.7781L30.0296 5.675V5.38921H32.4039L36.8227 18.8435H37.2843L41.7471 5.38921H44.1214V5.675L38.9991 20.7781H35.1739Z" fill="var(--fill-0, black)"/>
<path d="M46.0036 20.7781V18.7555H47.5425V7.41174H46.0036V5.38921H52.335C57.1495 5.38921 60.2053 8.77476 60.2053 13.0836C60.2053 17.7003 57.1495 20.7781 52.335 20.7781H46.0036ZM49.8069 18.7116H52.1372C55.6766 18.7116 57.853 16.6451 57.853 13.0836C57.853 9.67611 55.6766 7.45571 52.1372 7.45571H49.8069V18.7116Z" fill="var(--fill-0, black)"/>
<path d="M70.0077 21.0639C65.369 21.0639 62.1374 17.6343 62.1374 13.0836C62.1374 8.5769 65.391 5.10341 70.0297 5.10341C73.4152 5.10341 75.8115 6.92809 76.9107 9.39031L74.9101 10.4455C74.2286 8.66484 72.4479 7.25786 70.0297 7.25786C66.82 7.25786 64.4677 9.69809 64.4677 13.0836C64.4677 16.5132 66.82 18.9094 70.0297 18.9094C72.382 18.9094 74.4924 17.5024 75.152 15.1062L77.1965 16.1174C76.2292 18.9754 73.5251 21.0639 70.0077 21.0639Z" fill="var(--fill-0, black)"/>
<path d="M87.011 21.0639C82.3724 21.0639 79.1407 17.6343 79.1407 13.0836C79.1407 8.5769 82.3943 5.10341 87.033 5.10341C90.4185 5.10341 92.8148 6.92809 93.914 9.39031L91.9135 10.4455C91.2319 8.66484 89.4512 7.25786 87.033 7.25786C83.8233 7.25786 81.471 9.69809 81.471 13.0836C81.471 16.5132 83.8233 18.9094 87.033 18.9094C89.3853 18.9094 91.4958 17.5024 92.1553 15.1062L94.1998 16.1174C93.2325 18.9754 90.5285 21.0639 87.011 21.0639Z" fill="var(--fill-0, black)"/>
</g>
</g>
</svg>
