<svg overflow="visible" style="display: block;" viewBox="0 0 101.651 18.3283" fill="none" xmlns="http://www.w3.org/2000/svg">
<g id="Group">
<path id="Vector" d="M16.0327 11.0835C16.3596 10.529 17.1716 10.529 17.495 11.0835L20.9693 16.9934C21.2963 17.5479 20.8867 18.2384 20.2364 18.2384H13.2877C12.6374 18.2384 12.2314 17.5479 12.5548 16.9934L16.0291 11.0835H16.0327Z" fill="var(--fill-0, black)"/>
<path id="Vector_2" d="M13.9345 7.1486C14.2506 6.59767 14.2506 5.91795 13.9345 5.36346L11.0853 0.415876C10.7656 -0.138625 9.96794 -0.138625 9.64819 0.415876L0.112675 16.9901C-0.207092 17.5446 0.191718 18.2386 0.83125 18.2386H6.52595C7.16189 18.2386 7.74756 17.8988 8.06371 17.3479L13.9309 7.1486H13.9345Z" fill="var(--fill-0, black)"/>
<path id="Vector_3" d="M33.6418 16.8578V18.2386H32.8154C31.8274 18.2386 31.4573 17.8129 31.4429 17.0903C30.9399 17.8237 30.1567 18.3245 28.9782 18.3245C27.3399 18.3245 26.2009 17.516 26.2009 16.1208C26.2009 14.561 27.3075 13.7096 29.4058 13.7096H31.2813V13.2553C31.2813 12.4181 30.6777 11.903 29.6429 11.903C28.7124 11.903 28.0944 12.343 27.9758 13.0049H26.3949C26.571 11.5489 27.8106 10.6223 29.7184 10.6223C31.6262 10.6223 32.8622 11.5775 32.8622 13.3555V16.3676C32.8622 16.7504 32.9951 16.8542 33.3328 16.8542H33.6418V16.8578ZM31.2813 14.8866H29.3339C28.3603 14.8866 27.8142 15.2551 27.8142 16.017C27.8142 16.6502 28.3459 17.0903 29.201 17.0903C30.5016 17.0903 31.2813 16.3104 31.2813 15.1799V14.8866Z" fill="var(--fill-0, black)"/>
<path id="Vector_4" d="M37.112 18.2382L34.2484 10.7113H35.9622L38.1181 16.5318L40.2591 10.7113H41.9407L39.0629 18.2382H37.1157H37.112Z" fill="var(--fill-0, black)"/>
<path id="Vector_5" d="M50.0831 16.8578V18.2386H49.2568C48.2688 18.2386 47.8988 17.8129 47.8844 17.0903C47.3814 17.8237 46.5983 18.3245 45.4198 18.3245C43.7814 18.3245 42.6425 17.516 42.6425 16.1208C42.6425 14.561 43.7489 13.7096 45.8474 13.7096H47.7228V13.2553C47.7228 12.4181 47.1191 11.903 46.0845 11.903C45.1538 11.903 44.5361 12.343 44.4173 13.0049H42.8363C43.0124 11.5489 44.252 10.6223 46.1599 10.6223C48.0675 10.6223 49.3037 11.5775 49.3037 13.3555V16.3676C49.3037 16.7504 49.4365 16.8542 49.7743 16.8542H50.0831V16.8578ZM47.7191 14.8866H45.7719C44.7983 14.8866 44.252 15.2551 44.252 16.017C44.252 16.6502 44.7839 17.0903 45.6387 17.0903C46.9397 17.0903 47.7191 16.3104 47.7191 15.1799V14.8866Z" fill="var(--fill-0, black)"/>
<path id="Vector_6" d="M57.3832 16.8434V18.2386H51.2432V16.8434H53.5244V9.44532L51.2432 10.1966V8.79421L53.194 8.05011H55.1198V16.847H57.3869L57.3832 16.8434Z" fill="var(--fill-0, black)"/>
<path id="Vector_7" d="M65.8881 16.8578V18.2386H65.0617C64.0737 18.2386 63.7034 17.8129 63.6894 17.0903C63.1863 17.8237 62.4028 18.3245 61.2243 18.3245C59.586 18.3245 58.4471 17.516 58.4471 16.1208C58.4471 14.561 59.5538 13.7096 61.6519 13.7096H63.5277V13.2553C63.5277 12.4181 62.924 11.903 61.889 11.903C60.9587 11.903 60.3406 12.343 60.2223 13.0049H58.6413C58.8174 11.5489 60.0569 10.6223 61.9645 10.6223C63.8725 10.6223 65.1083 11.5775 65.1083 13.3555V16.3676C65.1083 16.7504 65.2415 16.8542 65.5792 16.8542H65.8881V16.8578ZM63.5277 14.8866H61.5802C60.6066 14.8866 60.0602 15.2551 60.0602 16.017C60.0602 16.6502 60.5922 17.0903 61.4474 17.0903C62.748 17.0903 63.5277 16.3104 63.5277 15.1799V14.8866Z" fill="var(--fill-0, black)"/>
<path id="Vector_8" d="M74.425 13.9457V18.2386H72.8152V14.0924C72.8152 12.7544 72.2404 12.0211 71.1014 12.0211C69.9052 12.0211 69.1827 12.8868 69.1827 14.3428V18.2386H67.5877V10.7117H68.9745L69.1506 11.6955C69.607 11.1088 70.3183 10.6223 71.468 10.6223C73.0774 10.6223 74.4213 11.488 74.4213 13.9457H74.425Z" fill="var(--fill-0, black)"/>
<path id="Vector_9" d="M76.3828 14.4895C76.3828 12.1677 77.8739 10.6223 80.1481 10.6223C82.0812 10.6223 83.2919 11.6955 83.5867 13.4019H81.9196C81.7113 12.5183 81.0788 11.9745 80.1196 11.9745C78.8512 11.9745 78.0067 13.0192 78.0067 14.4895C78.0067 15.9598 78.8475 16.9722 80.1196 16.9722C81.0643 16.9722 81.7146 16.4142 81.9051 15.5448H83.5867C83.3063 17.2513 82.0202 18.3245 80.1015 18.3245C77.8273 18.3245 76.3792 16.8399 76.3792 14.4895H76.3828Z" fill="var(--fill-0, black)"/>
<path id="Vector_10" d="M92.4138 13.9455V18.2384H90.804V14.0778C90.804 12.7828 90.2292 12.0208 89.0473 12.0208C87.8651 12.0208 87.0998 12.9044 87.0998 14.3282V18.2384H85.5048V7.94968H87.0998V11.6702C87.6173 11.0227 88.4004 10.6256 89.4172 10.6256C91.1887 10.6256 92.4138 11.6702 92.4138 13.9491V13.9455Z" fill="var(--fill-0, black)"/>
<path id="Vector_11" d="M95.967 14.8439V14.919C96.0103 16.1961 96.8078 17.0368 98.0474 17.0368C98.9925 17.0368 99.7145 16.5503 99.9228 15.7132H101.518C101.252 17.1978 99.9982 18.3283 98.1372 18.3283C95.7765 18.3283 94.2999 16.8007 94.2999 14.4933C94.2999 12.1858 95.7765 10.6261 97.9756 10.6261C100.174 10.6261 101.608 12.007 101.651 14.2142C101.651 14.3752 101.637 14.6256 101.608 14.8474H95.967V14.8439ZM96.0247 13.6526H99.9945C99.8617 12.5364 99.0931 11.9032 97.9863 11.9032C96.9983 11.9032 96.1394 12.5794 96.021 13.6526H96.0247Z" fill="var(--fill-0, black)"/>
</g>
</svg>
