<svg width="414" height="96" viewBox="0 0 414 96" fill="none" xmlns="http://www.w3.org/2000/svg">
<path d="M206.206 55.5895L245.439 55.5824V92.5121H251.363V55.5614H262.548C269.669 55.5614 274.931 53.8282 278.309 50.3143C281.711 46.8003 283.399 41.4558 283.399 34.2807V24.5437C283.399 17.6867 281.859 12.34 278.773 8.51017H278.769C275.686 4.65433 270.791 2.72641 264.11 2.72641H245.437V29.1569H251.361V8.11853H264.112C268.909 8.11853 272.336 9.48604 274.39 12.2189C276.445 14.9517 277.473 18.9309 277.473 24.1521V34.6702C277.473 40.138 276.3 44.0912 273.95 46.532C271.576 48.9727 267.783 50.1931 262.546 50.1931H245.439L206.206 50.1953V8.11854H235.795V2.72426H200.309V92.5143H235.795V87.12H206.206V55.5895ZM206.206 55.5895V55.5874M141.009 60.324C139.467 57.3229 137.533 54.8085 135.21 52.7573C132.91 50.7082 129.898 48.3389 126.203 45.7034C122.703 43.1415 119.939 40.9193 117.906 39.0887C115.899 37.2582 114.211 35.062 112.84 32.5477C111.468 30.0334 110.783 27.1296 110.783 23.8839C110.783 18.8553 111.835 14.8285 113.99 11.8274C116.144 8.85002 119.52 7.33754 124.146 7.33754C128.772 7.33754 132.174 8.85002 134.303 11.8274C136.457 14.8285 137.533 18.8813 137.533 24.031V26.3246H143.186V24.3967C143.186 17.5635 141.619 12.1216 138.486 8.04509C135.353 3.99451 130.532 1.96706 124.022 1.96706C117.585 2.04063 112.79 4.04211 109.607 7.99533C106.45 11.9247 104.859 17.3428 104.859 24.2734C104.859 28.3002 105.643 31.8141 107.233 34.8651C108.823 37.8922 110.78 40.4541 113.083 42.5529C115.409 44.6518 118.394 47.019 122.089 49.6804C125.515 52.1449 128.232 54.3174 130.263 56.1479C132.27 58.0023 133.958 60.1509 135.329 62.6392C136.7 65.1038 137.41 67.9838 137.41 71.2294C137.41 76.3554 136.308 80.406 134.129 83.3335C131.927 86.2871 128.477 87.7758 123.753 87.7758C119.03 87.7758 115.604 86.2871 113.402 83.3335C111.223 80.406 110.123 76.3532 110.123 71.2294V66.2268H104.471V70.8399C104.471 77.6731 106.061 83.141 109.242 87.1916C112.399 91.2681 117.294 93.2934 123.901 93.2934C130.508 93.2934 135.379 91.2681 138.56 87.1916C141.717 83.141 143.307 77.6731 143.307 70.8399C143.307 66.8132 142.548 63.323 141.007 60.3218L141.009 60.324ZM150.016 2.72641V8.1207H168.396V92.5165H174.319V8.1207H192.576V2.72641H150.016ZM328.278 60.324C326.735 57.3229 324.802 54.8085 322.502 52.7573C320.178 50.7082 317.167 48.3389 313.496 45.7034C309.972 43.1415 307.206 40.9193 305.199 39.0887C303.168 37.2582 301.48 35.062 300.108 32.5477C298.737 30.0334 298.051 27.1296 298.051 23.8839C298.051 18.8553 299.128 14.8285 301.258 11.8274C303.413 8.85002 306.789 7.33754 311.439 7.33754C316.089 7.33754 319.441 8.85002 321.595 11.8274C323.724 14.8285 324.802 18.8813 324.802 24.031V26.3246H330.48V24.3967C330.48 17.5635 328.914 12.1216 325.781 8.04509C322.648 3.99451 317.826 1.96706 311.293 1.96706C304.882 2.04063 300.061 4.04211 296.904 7.99533C293.723 11.9247 292.132 17.3428 292.132 24.2734C292.132 28.3002 292.939 31.8141 294.506 34.8651C296.096 37.8922 298.054 40.4541 300.38 42.5529C302.679 44.6518 305.691 47.019 309.386 49.6804C312.812 52.1449 315.529 54.3174 317.536 56.1479C319.567 58.0023 321.255 60.1509 322.626 62.6392C323.997 65.1038 324.683 67.9838 324.683 71.2294C324.683 76.3554 323.581 80.406 321.402 83.3335C319.224 86.2871 315.774 87.7758 311.05 87.7758C306.327 87.7758 302.877 86.2871 300.699 83.3335C298.496 80.406 297.418 76.3532 297.418 71.2294V66.2268H291.74V70.8399C291.74 77.6731 293.33 83.141 296.513 87.1916C299.694 91.2681 304.565 93.2934 311.172 93.2934C317.779 93.2934 322.674 91.2681 325.831 87.1916C329.012 83.141 330.602 77.6731 330.602 70.8399C330.602 66.8132 329.819 63.323 328.278 60.3218V60.324ZM340.678 84.3569V92.5144H348.858V84.3569H340.678ZM42.1816 38.2167C43.8393 35.0857 44.6682 31.0287 44.6682 26.0455V23.6653C44.6682 16.2025 42.8347 10.4923 39.144 6.485C35.4272 2.50366 30.0766 0.5 23.0206 0.5C15.9646 0.5 10.614 2.50366 6.92107 6.485C3.23033 10.4923 1.37085 16.2025 1.37085 23.6653V28.6745H15.1075V22.7393C15.1075 16.6785 17.6179 13.673 22.6409 13.673C25.1014 13.673 26.9609 14.4239 28.241 15.9775C29.5212 17.5051 30.1504 20.2358 30.1504 24.1933V29.3279C30.1504 32.8354 29.4213 35.3389 27.9915 36.8406C26.5356 38.3184 24.3506 39.0692 21.4367 39.0692H15.7606V52.2423H20.6577C23.997 52.2423 26.4097 53.1446 27.9155 54.9232C29.3975 56.7256 30.1504 59.7311 30.1504 63.9396V71.1775C30.1504 75.0593 29.5233 77.7402 28.241 79.2916C26.9609 80.8192 25.1014 81.596 22.6409 81.596C17.6179 81.596 15.1075 78.5646 15.1075 72.5039V63.9375H1.37085V71.5756C1.37085 79.0385 3.23033 84.7746 6.92107 88.7559C10.614 92.7633 15.9884 94.7409 23.0206 94.7409C30.0527 94.7409 35.4272 92.7633 39.144 88.7559C42.8347 84.7746 44.6682 79.0385 44.6682 71.5756V64.3378C44.6682 54.4191 41.279 47.984 34.5224 44.9785C37.9376 43.5764 40.5001 41.3217 42.1816 38.2167ZM94.4444 38.2167C96.1021 35.0857 96.9548 31.0287 96.9548 26.0455V23.6653C96.9548 16.2025 95.0954 10.4923 91.4046 6.485C87.7139 2.50366 82.3373 0.5 75.3051 0.5C68.2729 0.5 62.8985 2.50366 59.1817 6.485C55.491 10.4923 53.6575 16.2025 53.6575 23.6653V28.6745H67.3703V22.7393C67.3703 16.6785 69.8807 13.673 74.9037 13.673C77.3642 13.673 79.2237 14.4239 80.5038 15.9775C81.784 17.5051 82.4371 20.2358 82.4371 24.1933V29.3279C82.4371 32.8354 81.708 35.3389 80.2521 36.8406C78.7962 38.3184 76.6113 39.0692 73.7234 39.0692H68.0473V52.2423H72.9184C76.2598 52.2423 78.6942 53.1446 80.1762 54.9232C81.682 56.7256 82.4371 59.7311 82.4371 63.9396V71.1775C82.4371 75.0593 81.784 77.7402 80.5038 79.2916C79.2237 80.8192 77.3642 81.596 74.9037 81.596C69.8807 81.596 67.3703 78.5646 67.3703 72.5039V63.9375H53.6575V71.5756C53.6575 79.0385 55.491 84.7746 59.1817 88.7559C62.8985 92.7633 68.2491 94.7409 75.3051 94.7409C82.3611 94.7409 87.7117 92.7633 91.4046 88.7559C95.0954 84.7746 96.9548 79.0385 96.9548 71.5756V64.3378C96.9548 54.4191 93.5635 47.984 86.7831 44.9785C90.2243 43.5764 92.7607 41.3217 94.4423 38.2167H94.4444ZM362.128 72.4021C364.591 70.5304 367.85 69.5935 371.91 69.5935H376.323V72.9322H371.679C368.635 72.9322 366.199 73.577 364.374 74.8687C362.547 76.1584 361.634 78.1966 361.634 80.9792C361.634 83.7618 362.547 85.798 364.374 87.0897C366.201 88.3793 368.635 89.0263 371.679 89.0263H399.383C402.427 89.0263 404.851 88.3815 406.651 87.0897C408.455 85.8001 409.353 83.764 409.353 80.9792C409.353 78.1945 408.452 76.1605 406.651 74.8687C404.851 73.5791 402.427 72.9322 399.383 72.9322H393.067V69.5935H399.155C403.215 69.5935 406.474 70.5304 408.934 72.4021C411.397 74.2737 412.625 77.158 412.625 81.055C412.625 84.9519 411.395 87.8362 408.934 89.7079C406.474 91.5796 403.215 92.5165 399.155 92.5165H371.907C367.85 92.5165 364.589 91.5817 362.126 89.7079C359.666 87.8362 358.435 84.9519 358.435 81.055C358.435 77.158 359.666 74.2759 362.126 72.4021H362.128ZM362.128 61.2067C359.668 59.2593 358.438 56.362 358.438 52.517C358.438 48.672 359.655 45.6232 362.091 43.6736C364.526 41.7263 367.8 40.7526 371.91 40.7526H399.157C403.267 40.7526 406.539 41.7263 408.975 43.6736C411.412 45.621 412.629 48.5703 412.629 52.517C412.629 56.4637 411.399 59.2615 408.938 61.2067C406.478 63.1562 403.219 64.1299 399.159 64.1299H371.912C367.854 64.1299 364.593 63.1562 362.13 61.2067H362.128ZM406.727 58.6643C408.528 57.3487 409.429 55.2996 409.429 52.5148C409.429 49.73 408.528 47.5944 406.727 46.2529C404.927 44.9135 402.479 44.2406 399.383 44.2406H371.68C368.585 44.2406 366.136 44.9113 364.335 46.2529C362.534 47.5944 361.634 49.6803 361.634 52.5148C361.634 55.3494 362.534 57.3487 364.335 58.6643C366.136 59.9798 368.585 60.6376 371.68 60.6376H399.383C402.479 60.6376 404.927 59.9798 406.727 58.6643ZM412.093 20.6381L364.982 31.8703H412.169V34.9818H358.893V29.9726L406.005 18.8141L358.893 7.73338V2.72425H412.169V6.06295H364.83L412.093 17.1436V20.6381Z" stroke="#141414" stroke-width="1" style="vector-effect:non-scaling-stroke"/>
</svg>
