<svg overflow="visible" style="display: block;" viewBox="0 0 73.7391 16.5589" fill="none" xmlns="http://www.w3.org/2000/svg">
<g id="Group 1597882018">
<path id="Vector" fill-rule="evenodd" clip-rule="evenodd" d="M54.1441 8.80019H53.9197L50.9991 0.330897H47.5783V0.681059L51.6981 12.5083H56.2413L60.3624 0.681059V0.330897H57.0904L54.1429 8.80019H54.1441Z" fill="var(--fill-0, black)"/>
<path id="Vector_2" d="M46.6677 0.330897H43.2661V12.507H46.6677V0.330897Z" fill="var(--fill-0, black)"/>
<path id="Vector_3" fill-rule="evenodd" clip-rule="evenodd" d="M70.4671 0.329616H70.4696L67.5221 8.80147H67.2976L64.3771 0.330899H60.9563V0.683626L65.4314 13.5331H61.1936V16.3537H65.3352C67.104 16.3537 68.4815 15.7572 69.1498 13.8538C69.2396 13.5998 73.7391 0.68106 73.7391 0.68106V0.328334H70.4671V0.329616Z" fill="var(--fill-0, black)"/>
<path id="Vector_4" fill-rule="evenodd" clip-rule="evenodd" d="M25.9311 0C24.3842 0 22.9387 0.787542 22.037 2.26771H21.8279V0.343748H18.5854V16.3498H22.0306V10.9576H22.2422C22.2653 10.9897 22.2884 11.023 22.3115 11.05C22.8925 11.7567 24.2495 12.8341 25.9375 12.8341C29.0094 12.8341 31.1104 10.179 31.1104 6.41834C31.1104 2.65764 28.9055 0 25.9311 0ZM24.9024 10.1944C23.2991 10.1944 22.1922 8.94515 22.1922 6.41962C22.1922 3.8941 23.2991 2.64481 24.9024 2.64481C26.5057 2.64481 27.6665 3.92104 27.6665 6.41962C27.6665 8.91821 26.5326 10.1944 24.9024 10.1944Z" fill="var(--fill-0, black)"/>
<path id="Vector_5" fill-rule="evenodd" clip-rule="evenodd" d="M39.6553 0.329669C38.0584 0.329669 37.0336 0.596459 36.4346 2.26774H36.2294V0.330952H31.2976V3.12711H32.3981C32.7611 3.12711 32.9394 3.25538 32.9856 3.55295V5.8771H32.9984V12.5084H36.4436V6.04897C36.4436 4.37641 36.8976 3.35157 38.5702 3.35157H42.1795V0.329669H39.6566H39.6553Z" fill="var(--fill-0, black)"/>
<path id="Vector_6" d="M6.41321 12.8304C9.95459 12.8304 12.8264 9.95859 12.8264 6.41722C12.8264 2.87584 9.95459 0.00400602 6.41321 0.00400602C2.87184 0.00400602 0 2.87584 0 6.41722C0 9.95859 2.87184 12.8304 6.41321 12.8304Z" fill="var(--fill-0, black)"/>
<path id="Vector_7" d="M6.41336 16.5589C8.83371 16.5589 10.7961 16.1459 10.7961 15.6392C10.7961 15.1326 8.83499 14.7196 6.41336 14.7196C3.99173 14.7196 2.03057 15.1326 2.03057 15.6392C2.03057 16.1459 3.99173 16.5589 6.41336 16.5589Z" fill="var(--fill-0, black)"/>
</g>
</svg>
